<?xml version="1.0" encoding="UTF-8"?>
<svg width="23px" height="25px" viewBox="0 0 23 25" version="1.1" xmlns="http://www.w3.org/2000/svg" xmlns:xlink="http://www.w3.org/1999/xlink">
    <!-- Generator: Sketch 49.3 (51167) - http://www.bohemiancoding.com/sketch -->
    <title>Group Copy 4</title>
    <desc>Created with Sketch.</desc>
    <defs></defs>
    <g id="UI" stroke="none" stroke-width="1" fill="none" fill-rule="evenodd">
        <g id="Artboard" transform="translate(-149.000000, -231.000000)">
            <g id="Group-Copy-4" transform="translate(143.000000, 226.000000)">
                <rect id="Rectangle-8" fill="#D8D8D8" opacity="0" x="0" y="0" width="35" height="35"></rect>
                <g id="女" transform="translate(6.000000, 5.000000)" fill="#FFFFFF" fill-rule="nonzero">
                    <path d="M11.9752197,25 C11.4886813,25 11.0906043,24.612069 11.0906043,24.137931 C11.0906043,23.6637931 11.4886813,23.2758621 11.9752197,23.2758621 C12.302973,23.2758621 16.5608,23.2740693 16.8536755,23.2677472 C20.0784329,23.1981364 21.2307692,22.5794125 21.2307692,17.7586207 L21.2307692,11.2068966 C21.2307692,5.99137931 16.8519231,1.72413793 11.5,1.72413793 C6.14807692,1.72413793 1.76923077,5.99137931 1.76923077,11.2068966 L1.76923077,17.7586207 C1.76923077,22.6666608 2.96365525,23.2191558 6.32345454,23.2710088 C6.56344454,23.2747126 11.7127794,23.2758621 11.9752197,23.2758621 C12.4617582,23.2758621 12.8598351,23.6637931 12.8598351,24.137931 C12.8598351,24.612069 12.4617582,25 11.9752197,25 C11.7051716,25 6.54512341,24.9968702 6.29157289,24.9899221 C1.93544383,24.87055 0,23.6241135 0,17.7586207 L0,11.2068966 C0,5.04310345 5.175,0 11.5,0 C17.825,0 23,5.04310345 23,11.2068966 L23,17.7586207 C23,23.5768358 21.095631,24.8501565 16.8132908,24.9868141 C16.5272123,24.9959434 12.2826642,25 11.9752197,25 Z M11.5,22.3706897 C6.9,22.3706897 3.14038462,18.5344828 3.14038462,13.7931034 L3.14038462,11.2068966 C3.14038462,10.7327586 3.53846154,10.387931 3.98076923,10.387931 C7.12115385,10.387931 8.84615385,9.9137931 10.6596154,9.39655172 C11.6326923,9.13793103 12.6057692,8.87931034 13.8442308,8.6637931 C17.2942308,8.10344828 19.1519231,8.57758621 19.2403846,8.57758621 C19.5942308,8.6637931 19.8596154,9.00862069 19.8596154,9.39655172 L19.8596154,13.7931034 C19.8596154,18.5344828 16.1,22.3706897 11.5,22.3706897 Z M4.82115385,12.0258621 L4.82115385,13.7931034 C4.82115385,17.6293103 7.82884615,20.7327586 11.5,20.7327586 C15.1711538,20.7327586 18.1788462,17.6293103 18.1788462,13.7931034 L18.1788462,10.0862069 C17.4711538,10 16.1,9.95689655 14.1538462,10.3017241 C13.0038462,10.4741379 12.1192308,10.7327586 11.1461538,10.9913793 C9.46538462,11.4655172 7.69615385,11.9396552 4.82115385,12.0258621 Z" id="Shape"></path>
                </g>
            </g>
        </g>
    </g>
</svg>