<?xml version="1.0" encoding="UTF-8"?>
<svg width="24px" height="29px" viewBox="0 0 24 29" version="1.1" xmlns="http://www.w3.org/2000/svg" xmlns:xlink="http://www.w3.org/1999/xlink">
    <!-- Generator: Sketch 49.3 (51167) - http://www.bohemiancoding.com/sketch -->
    <title>Group 15</title>
    <desc>Created with Sketch.</desc>
    <defs>
        <path d="M20.1810302,17.1258611 C20.8806152,16.8685434 22.1613255,16.3709635 22.7398888,15.6307178 C23.3305504,14.8431689 23.6258556,13.9080359 23.6258556,12.7918229 C23.6258556,11.2157303 23.1487809,10.0743743 22.1984282,9.27022653 C21.2017964,8.42308952 19.8107294,8 17.9290603,8 L10,8 L10,17.674143 L17.7685895,17.674143 C18.9104934,17.4801668 19.7146403,17.2974062 20.1810302,17.1258611 Z M20.8040771,18.0812988 C21.0698649,18.1871745 21.444418,18.380421 21.9277365,18.6610384 C23.2621451,19.3764458 24.0149365,20.5588391 24.1733694,22.2337009 L24.4448611,25.3709383 C24.5655241,26.698231 24.8671815,27.7540321 25.3799992,28.5383414 L24.0828722,28.5383414 C23.6605517,27.7841978 23.4192258,26.7887283 23.2985628,25.5820985 L23.0270711,22.4750268 C22.9064081,21.0874026 22.3634247,20.091933 21.3981209,19.4886181 C20.5534801,18.9456347 19.377016,18.674143 17.8988946,18.674143 L10.176464,18.674143 L10.176464,28.5383414 L9,28.5383414 L9,7 L17.9290603,7 C20.0104967,7 21.6394469,7.48265191 22.8460766,8.50828722 C24.0225407,9.50375678 24.6258556,10.9215468 24.6258556,12.7918229 C24.6258556,14.1191157 24.2638666,15.2654139 23.5398888,16.2307178 C23.1033887,16.7894379 22.5658296,17.2268873 21.933061,17.5547647 C21.6913101,17.697702 21.3149821,17.8732134 20.8040771,18.0812988 Z" id="path-1"></path>
        <filter x="-42.7%" y="-23.2%" width="185.5%" height="165.0%" filterUnits="objectBoundingBox" id="filter-2">
            <feOffset dx="0" dy="2" in="SourceAlpha" result="shadowOffsetOuter1"></feOffset>
            <feGaussianBlur stdDeviation="2" in="shadowOffsetOuter1" result="shadowBlurOuter1"></feGaussianBlur>
            <feColorMatrix values="0 0 0 0 0   0 0 0 0 0   0 0 0 0 0  0 0 0 0.5 0" type="matrix" in="shadowBlurOuter1"></feColorMatrix>
        </filter>
    </defs>
    <g id="UI" stroke="none" stroke-width="1" fill="none" fill-rule="evenodd">
        <g id="Artboard" transform="translate(-416.000000, -237.000000)">
            <g id="Group-15" transform="translate(411.000000, 232.000000)">
                <g id="Rectangle-6-Copy" fill="#000000" opacity="0">
                    <rect x="0" y="0" width="35" height="35"></rect>
                </g>
                <g id="R" fill-rule="nonzero">
                    <use fill="black" fill-opacity="1" filter="url(#filter-2)" xlink:href="#path-1"></use>
                    <use fill="#FFFFFF" fill-rule="evenodd" xlink:href="#path-1"></use>
                </g>
                <path d="M20.1810302,17.1258611 C20.8806152,16.8685434 22.1613255,16.3709635 22.7398888,15.6307178 C23.3305504,14.8431689 23.6258556,13.9080359 23.6258556,12.7918229 C23.6258556,11.2157303 23.1487809,10.0743743 22.1984282,9.27022653 C21.2017964,8.42308952 19.8107294,8 17.9290603,8 L10,8 L10,17.674143 L17.7685895,17.674143 C18.9104934,17.4801668 19.7146403,17.2974062 20.1810302,17.1258611 Z M20.8040771,18.0812988 C21.0698649,18.1871745 21.444418,18.380421 21.9277365,18.6610384 C23.2621451,19.3764458 24.0149365,20.5588391 24.1733694,22.2337009 L24.4448611,25.3709383 C24.5655241,26.698231 24.8671815,27.7540321 25.3799992,28.5383414 L24.0828722,28.5383414 C23.6605517,27.7841978 23.4192258,26.7887283 23.2985628,25.5820985 L23.0270711,22.4750268 C22.9064081,21.0874026 22.3634247,20.091933 21.3981209,19.4886181 C20.5534801,18.9456347 19.377016,18.674143 17.8988946,18.674143 L10.176464,18.674143 L10.176464,28.5383414 L9,28.5383414 L9,7 L17.9290603,7 C20.0104967,7 21.6394469,7.48265191 22.8460766,8.50828722 C24.0225407,9.50375678 24.6258556,10.9215468 24.6258556,12.7918229 C24.6258556,14.1191157 24.2638666,15.2654139 23.5398888,16.2307178 C23.1033887,16.7894379 22.5658296,17.2268873 21.933061,17.5547647 C21.6913101,17.697702 21.3149821,17.8732134 20.8040771,18.0812988 Z" id="R" fill="#FFFFFF" fill-rule="nonzero"></path>
            </g>
        </g>
    </g>
</svg>