<?xml version="1.0" encoding="UTF-8"?>
<svg width="20px" height="20px" viewBox="0 0 20 20" version="1.1" xmlns="http://www.w3.org/2000/svg" xmlns:xlink="http://www.w3.org/1999/xlink">
    <!-- Generator: Sketch 49.3 (51167) - http://www.bohemiancoding.com/sketch -->
    <title>Group 34 Copy</title>
    <desc>Created with Sketch.</desc>
    <defs>
        <rect id="path-1" x="0" y="0" width="35" height="35"></rect>
    </defs>
    <g id="UI" stroke="none" stroke-width="1" fill="none" fill-rule="evenodd">
        <g id="Artboard" transform="translate(-560.000000, -353.000000)">
            <g id="Group-34-Copy" transform="translate(552.000000, 345.000000)">
                <g id="Rectangle-4" opacity="0">
                    <g>
                        <use fill="#D8D8D8" fill-rule="evenodd" xlink:href="#path-1"></use>
                        <rect stroke="#979797" stroke-width="1" x="0.5" y="0.5" width="34" height="34"></rect>
                    </g>
                </g>
                <g id="撤销-3-copy" opacity="0.600000024" transform="translate(18.000000, 18.000000) scale(-1, 1) translate(-18.000000, -18.000000) translate(8.000000, 8.000000)" fill="#FFFFFF" fill-rule="nonzero">
                    <path d="M1.56321839,4.82758621 L11.954023,4.82758621 C15.908046,4.82758621 19.0804598,8 19.0804598,11.954023 C19.0804598,15.908046 15.908046,19.0804598 11.954023,19.0804598 L7.26436782,19.0804598 C6.98850575,19.0804598 6.8045977,19.2643678 6.8045977,19.5402299 C6.8045977,19.816092 6.98850575,20 7.26436782,20 L11.954023,20 C16.4137931,20 20,16.4137931 20,11.954023 C20,7.49425287 16.4137931,3.90804598 11.954023,3.90804598 L1.56321839,3.90804598 L4.68965517,0.781609195 C4.87356322,0.597701149 4.87356322,0.32183908 4.68965517,0.137931034 C4.50574713,-0.0459770115 4.22988506,-0.0459770115 4.04597701,0.137931034 L0.137931034,4.04597701 C-0.0459770115,4.22988506 -0.0459770115,4.50574713 0.137931034,4.68965517 L4.04597701,8.59770115 C4.22988506,8.7816092 4.50574713,8.7816092 4.68965517,8.59770115 C4.87356322,8.4137931 4.87356322,8.13793103 4.68965517,7.95402299 L1.56321839,4.82758621 Z" id="Shape"></path>
                </g>
            </g>
        </g>
    </g>
</svg>