<?xml version="1.0" encoding="UTF-8"?>
<svg width="26px" height="26px" viewBox="0 0 26 26" version="1.1" xmlns="http://www.w3.org/2000/svg" xmlns:xlink="http://www.w3.org/1999/xlink">
    <!-- Generator: Sketch 49.3 (51167) - http://www.bohemiancoding.com/sketch -->
    <title>Group 37</title>
    <desc>Created with Sketch.</desc>
    <defs>
        <path d="M15.012535,21.0633659 C15.6237419,21.6934913 16,22.5528058 16,23.5 C16,25.4329966 14.4329966,27 12.5,27 C10.5670034,27 9,25.4329966 9,23.5 C9,21.5670034 10.5670034,20 12.5,20 C13.1257564,20 13.7131578,20.1642171 14.2214598,20.4519067 L17.3360645,16.9040895 L11.1464466,9.85355339 C10.9511845,9.65829124 10.9511845,9.34170876 11.1464466,9.14644661 C11.3417088,8.95118446 11.6582912,8.95118446 11.8535534,9.14644661 L18,16.1478067 L24.1464466,9.14644661 C24.3417088,8.95118446 24.6582912,8.95118446 24.8535534,9.14644661 C25.0488155,9.34170876 25.0488155,9.65829124 24.8535534,9.85355339 L18.6639355,16.9040895 L21.7785402,20.4519067 C22.2868422,20.1642171 22.8742436,20 23.5,20 C25.4329966,20 27,21.5670034 27,23.5 C27,25.4329966 25.4329966,27 23.5,27 C21.5670034,27 20,25.4329966 20,23.5 C20,22.5528058 20.3762581,21.6934913 20.987465,21.0633659 L18,17.6603723 L15.012535,21.0633659 Z M23.5,26 C24.8807119,26 26,24.8807119 26,23.5 C26,22.1192881 24.8807119,21 23.5,21 C22.1192881,21 21,22.1192881 21,23.5 C21,24.8807119 22.1192881,26 23.5,26 Z M12.5,26 C13.8807119,26 15,24.8807119 15,23.5 C15,22.1192881 13.8807119,21 12.5,21 C11.1192881,21 10,22.1192881 10,23.5 C10,24.8807119 11.1192881,26 12.5,26 Z" id="path-1"></path>
        <filter x="-38.9%" y="-27.8%" width="177.8%" height="177.8%" filterUnits="objectBoundingBox" id="filter-2">
            <feOffset dx="0" dy="2" in="SourceAlpha" result="shadowOffsetOuter1"></feOffset>
            <feGaussianBlur stdDeviation="2" in="shadowOffsetOuter1" result="shadowBlurOuter1"></feGaussianBlur>
            <feColorMatrix values="0 0 0 0 0   0 0 0 0 0   0 0 0 0 0  0 0 0 0.596608922 0" type="matrix" in="shadowBlurOuter1"></feColorMatrix>
        </filter>
    </defs>
    <g id="UI" stroke="none" stroke-width="1" fill="none" fill-rule="evenodd">
        <g id="Artboard" transform="translate(-371.000000, -284.000000)">
            <g id="Group-37" transform="translate(366.000000, 277.000000)">
                <g>
                    <g id="Rectangle-6-Copy" fill="#000000" opacity="0">
                        <rect x="0" y="0" width="35" height="35"></rect>
                    </g>
                    <g id="Combined-Shape" fill-rule="nonzero" fill="black" fill-opacity="1">
                        <use filter="url(#filter-2)" xlink:href="#path-1"></use>
                    </g>
                    <path d="M17.9985979,16.9040895 L18,16.9024924 L18.0014021,16.9040895 L18,16.9056866 L17.9985979,16.9040895 Z M21.66617,21.0817867 L21.3463651,21.4114905 C20.8067051,21.9678544 20.5,22.7091223 20.5,23.5 C20.5,25.1568542 21.8431458,26.5 23.5,26.5 C25.1568542,26.5 26.5,25.1568542 26.5,23.5 C26.5,21.8431458 25.1568542,20.5 23.5,20.5 C22.9751206,20.5 22.4709694,20.6345337 22.0248209,20.8870456 L21.6710078,21.0872974 L21.66617,21.0817867 Z M14.33383,21.0817867 L14.3289922,21.0872974 L13.9751791,20.8870456 C13.5290306,20.6345337 13.0248794,20.5 12.5,20.5 C10.8431458,20.5 9.5,21.8431458 9.5,23.5 C9.5,25.1568542 10.8431458,26.5 12.5,26.5 C14.1568542,26.5 15.5,25.1568542 15.5,23.5 C15.5,22.7091223 15.1932949,21.9678544 14.6536349,21.4114905 L14.33383,21.0817867 Z M23.5,26.5 C21.8431458,26.5 20.5,25.1568542 20.5,23.5 C20.5,21.8431458 21.8431458,20.5 23.5,20.5 C25.1568542,20.5 26.5,21.8431458 26.5,23.5 C26.5,25.1568542 25.1568542,26.5 23.5,26.5 Z M12.5,26.5 C10.8431458,26.5 9.5,25.1568542 9.5,23.5 C9.5,21.8431458 10.8431458,20.5 12.5,20.5 C14.1568542,20.5 15.5,21.8431458 15.5,23.5 C15.5,25.1568542 14.1568542,26.5 12.5,26.5 Z" id="Combined-Shape" stroke="#FFFFFF" fill-rule="nonzero"></path>
                </g>
            </g>
        </g>
    </g>
</svg>