<?xml version="1.0" encoding="UTF-8"?>
<svg width="24px" height="24px" viewBox="0 0 24 24" version="1.1" xmlns="http://www.w3.org/2000/svg" xmlns:xlink="http://www.w3.org/1999/xlink">
    <!-- Generator: Sketch 49.3 (51167) - http://www.bohemiancoding.com/sketch -->
    <title>Group 8</title>
    <desc>Created with Sketch.</desc>
    <defs></defs>
    <g id="UI" stroke="none" stroke-width="1" fill="none" fill-rule="evenodd">
        <g id="Artboard" transform="translate(-102.000000, -231.000000)">
            <g id="Group-8" transform="translate(96.000000, 225.000000)">
                <rect id="Rectangle-3" fill="#D8D8D8" opacity="0" x="0" y="0" width="35" height="35"></rect>
                <g id="男-copy-5" transform="translate(6.000000, 6.000000)" fill="#FFFFFF" fill-rule="nonzero">
                    <path d="M12,24 C6.81428571,24 2.57142857,19.7581915 2.57142857,14.5737589 L2.57142857,9.04655382 C1.02857143,8.0182366 0,5.79021596 0,0.862862637 C0,0.562936782 0.171428571,0.263010928 0.471428571,0.0916247248 C0.728571429,-0.0369149272 1.07142857,-0.0369149272 1.32857143,0.134471276 C1.32857143,0.134471276 3.81428571,1.71979365 8.57142857,1.71979365 C9.81428571,1.71979365 10.6285714,1.54840745 11.5714286,1.37702125 C12.7285714,1.11994194 14.0571429,0.862862637 16.2857143,0.862862637 C21.9857143,0.862862637 24,4.54766599 24,7.71831074 C24,10.6747227 22.1142857,13.2455158 21.4285714,14.0167537 L21.4285714,14.5737589 C21.4285714,19.7581915 17.1857143,24 12,24 Z M4.28571429,9.68925208 L4.28571429,14.5737589 C4.28571429,18.8155674 7.75714286,22.286138 12,22.286138 C16.2428571,22.286138 19.7142857,18.8155674 19.7142857,14.5737589 L19.7142857,8.44670211 C19.0714286,8.40385556 17.9571429,8.40385556 16.4142857,8.74662796 C13.5428571,9.38932622 10.2857143,10.1605641 7.24285714,9.90348483 C6.9,9.86063828 6.55714286,9.86063828 6.21428571,9.86063828 C5.52857143,9.81779173 4.88571429,9.81779173 4.28571429,9.68925208 Z M19.0285714,6.68999353 C20.1,6.68999353 20.7,6.86137973 20.8285714,6.90422628 C21.1714286,7.03276593 21.4285714,7.33269179 21.4285714,7.71831074 L21.4285714,10.931802 C21.9,10.0320245 22.2857143,8.91801416 22.2857143,7.71831074 C22.2857143,4.50481944 20.0571429,2.57672466 16.2857143,2.57672466 C14.2285714,2.57672466 13.0714286,2.79095742 11.9142857,3.04803672 C10.9285714,3.21942292 9.98571429,3.43365568 8.57142857,3.43365568 C5.35714286,3.43365568 3.04285714,2.79095742 1.75714286,2.23395226 C2.01428571,8.06108315 3.98571429,8.1039297 6.21428571,8.14677625 C6.6,8.14677625 6.98571429,8.14677625 7.37142857,8.1896228 C10.1142857,8.40385556 13.2428571,7.71831074 15.9857143,7.07561248 C17.2714286,6.77568663 18.2571429,6.68999353 19.0285714,6.68999353 Z M3.42857143,14.9165313 C3.21428571,14.9165313 2.95714286,14.8308382 2.82857143,14.659452 C2.7,14.5309123 0,11.70304 0,9.00370726 C0,6.47576078 0.642857143,5.57598321 0.814285714,5.36175046 L2.05714286,6.51860733 L2.1,6.47576078 C2.1,6.47576078 1.67142857,7.07561248 1.67142857,9.00370726 C1.67142857,10.6747227 3.34285714,12.8170503 3.98571429,13.5025951 C4.32857143,13.8453675 4.28571429,14.4023726 3.94285714,14.7022985 C3.85714286,14.8736847 3.64285714,14.9165313 3.42857143,14.9165313 Z" id="Shape"></path>
                </g>
            </g>
        </g>
    </g>
</svg>